
<svg width="60" height="60" viewBox="0 0 60 60" xmlns="http://www.w3.org/2000/svg">
  <g fill="#92400E" fill-rule="nonzero" fill-opacity="0.2">
    <path d="M30 5c-2.7 0-5 2.3-5 5s2.3 5 5 5 5-2.3 5-5-2.3-5-5-5zm0 2c1.7 0 3 1.3 3 3s-1.3 3-3 3-3-1.3-3-3 1.3-3 3-3z"/>
    <path d="M10 15c-2.7 0-5 2.3-5 5s2.3 5 5 5 5-2.3 5-5-2.3-5-5-5zm0 2c1.7 0 3 1.3 3 3s-1.3 3-3 3-3-1.3-3-3 1.3-3 3-3zM50 15c-2.7 0-5 2.3-5 5s2.3 5 5 5 5-2.3 5-5-2.3-5-5-5zm0 2c1.7 0 3 1.3 3 3s-1.3 3-3 3-3-1.3-3-3 1.3-3 3-3z"/>
    <path d="M30 25c-2.7 0-5 2.3-5 5s2.3 5 5 5 5-2.3 5-5-2.3-5-5-5zm0 2c1.7 0 3 1.3 3 3s-1.3 3-3 3-3-1.3-3-3 1.3-3 3-3z"/>
    <path d="M10 35c-2.7 0-5 2.3-5 5s2.3 5 5 5 5-2.3 5-5-2.3-5-5-5zm0 2c1.7 0 3 1.3 3 3s-1.3 3-3 3-3-1.3-3-3 1.3-3 3-3zM50 35c-2.7 0-5 2.3-5 5s2.3 5 5 5 5-2.3 5-5-2.3-5-5-5zm0 2c1.7 0 3 1.3 3 3s-1.3 3-3 3-3-1.3-3-3 1.3-3 3-3z"/>
    <path d="M30 45c-2.7 0-5 2.3-5 5s2.3 5 5 5 5-2.3 5-5-2.3-5-5-5zm0 2c1.7 0 3 1.3 3 3s-1.3 3-3 3-3-1.3-3-3 1.3-3 3-3z"/>
  </g>
</svg>
